<svg xmlns="http://www.w3.org/2000/svg" xmlns:xlink="http://www.w3.org/1999/xlink" width="40" zoomAndPan="magnify" viewBox="0 0 30 30.000001" height="40" preserveAspectRatio="xMidYMid meet" version="1.0"><defs><clipPath id="090b6cad54"><path d="M 1.066406 17 L 10 17 L 10 25.410156 L 1.066406 25.410156 Z M 1.066406 17 " clip-rule="nonzero"/></clipPath><clipPath id="1111f95c15"><path d="M 24 13.796875 L 28.648438 13.796875 L 28.648438 18 L 24 18 Z M 24 13.796875 " clip-rule="nonzero"/></clipPath><clipPath id="68827bb84c"><path d="M 1.066406 12 L 10 12 L 10 20.25 L 1.066406 20.25 Z M 1.066406 12 " clip-rule="nonzero"/></clipPath><clipPath id="b453073a3a"><path d="M 24 8.636719 L 28.648438 8.636719 L 28.648438 13 L 24 13 Z M 24 8.636719 " clip-rule="nonzero"/></clipPath><clipPath id="500163ad2f"><path d="M 1.066406 7 L 10 7 L 10 15.242188 L 1.066406 15.242188 Z M 1.066406 7 " clip-rule="nonzero"/></clipPath><clipPath id="63404e6834"><path d="M 24 3.628906 L 28.648438 3.628906 L 28.648438 8 L 24 8 Z M 24 3.628906 " clip-rule="nonzero"/></clipPath></defs><path fill="#004aad" d="M 24.988281 16.984375 C 23.539062 18.285156 21.957031 19.722656 20.507812 21.023438 C 20.507812 21.023438 20.507812 21.027344 20.511719 21.027344 C 20.523438 21.046875 20.539062 21.070312 20.550781 21.097656 C 20.566406 21.121094 20.578125 21.144531 20.585938 21.171875 C 20.691406 21.414062 20.757812 21.671875 20.773438 21.9375 C 22.347656 20.523438 24.050781 18.976562 25.625 17.566406 C 25.375 17.417969 25.160156 17.21875 24.988281 16.984375 Z M 24.988281 16.984375 " fill-opacity="1" fill-rule="nonzero"/><path fill="#004aad" d="M 13.140625 16.992188 C 13.117188 17.3125 13.019531 17.625 12.863281 17.898438 C 14.179688 19.078125 15.632812 20.398438 16.949219 21.578125 C 17.015625 21.285156 17.144531 21.007812 17.332031 20.773438 C 15.980469 19.558594 14.492188 18.207031 13.140625 16.992188 Z M 13.140625 16.992188 " fill-opacity="1" fill-rule="nonzero"/><g clip-path="url(#090b6cad54)"><path fill="#004aad" d="M 4.375 21.648438 C 4.042969 21.390625 3.628906 21.234375 3.15625 21.207031 C 2.011719 21.144531 1.183594 22.203125 1.125 23.277344 C 1.066406 24.445312 2.101562 25.285156 3.15625 25.34375 C 4.257812 25.40625 5.0625 24.433594 5.175781 23.40625 C 5.1875 23.367188 5.191406 23.324219 5.1875 23.277344 C 5.191406 23.230469 5.1875 23.1875 5.175781 23.148438 C 5.144531 22.839844 5.058594 22.554688 4.925781 22.304688 C 6.46875 20.917969 8.078125 19.46875 9.621094 18.082031 C 9.441406 17.84375 9.3125 17.5625 9.253906 17.257812 C 7.648438 18.699219 5.980469 20.207031 4.375 21.648438 Z M 1.976562 23.277344 C 1.894531 21.726562 4.257812 21.734375 4.339844 23.277344 C 4.257812 24.824219 2.058594 24.824219 1.976562 23.277344 Z M 1.976562 23.277344 " fill-opacity="1" fill-rule="nonzero"/></g><path fill="#004aad" d="M 13.195312 16.671875 C 13.195312 16.652344 13.191406 16.636719 13.1875 16.621094 C 13.1875 16.601562 13.1875 16.578125 13.179688 16.554688 C 12.988281 15.515625 12.042969 14.78125 11.007812 14.871094 C 9.953125 14.960938 9.183594 15.875 9.15625 16.929688 C 9.152344 17.066406 9.164062 17.199219 9.1875 17.328125 C 9.246094 17.632812 9.375 17.910156 9.554688 18.152344 C 9.953125 18.679688 10.605469 19.011719 11.285156 18.992188 C 11.992188 18.972656 12.59375 18.550781 12.929688 17.964844 C 13.085938 17.691406 13.183594 17.382812 13.207031 17.0625 C 13.214844 16.933594 13.214844 16.800781 13.195312 16.671875 Z M 11.285156 18.128906 C 10.582031 18.191406 10.039062 17.613281 10.007812 16.929688 C 9.976562 16.308594 10.476562 15.84375 11.03125 15.734375 C 11.679688 15.601562 12.21875 16.140625 12.351562 16.738281 C 12.40625 17.425781 12 18.0625 11.285156 18.128906 Z M 11.285156 18.128906 " fill-opacity="1" fill-rule="nonzero"/><path fill="#004aad" d="M 20.617188 21.027344 C 20.605469 21.003906 20.59375 20.980469 20.578125 20.960938 C 20.578125 20.957031 20.574219 20.957031 20.574219 20.957031 C 19.984375 20.007812 18.8125 19.703125 17.832031 20.230469 C 17.605469 20.351562 17.417969 20.515625 17.265625 20.703125 C 17.078125 20.941406 16.949219 21.21875 16.882812 21.511719 C 16.761719 22.039062 16.828125 22.613281 17.101562 23.09375 C 17.636719 24.046875 18.816406 24.304688 19.753906 23.871094 C 20.535156 23.511719 20.898438 22.679688 20.839844 21.867188 C 20.824219 21.605469 20.761719 21.34375 20.652344 21.101562 C 20.644531 21.078125 20.632812 21.054688 20.617188 21.027344 Z M 19.402344 23.082031 C 18.898438 23.386719 18.214844 23.203125 17.882812 22.730469 C 17.492188 22.183594 17.640625 21.414062 18.175781 21.03125 C 18.765625 20.609375 19.539062 20.863281 19.882812 21.464844 C 20.179688 22.066406 19.960938 22.746094 19.402344 23.082031 Z M 19.402344 23.082031 " fill-opacity="1" fill-rule="nonzero"/><g clip-path="url(#1111f95c15)"><path fill="#004aad" d="M 28.613281 15.777344 C 28.585938 14.691406 27.683594 13.871094 26.65625 13.804688 C 26.632812 13.800781 26.609375 13.800781 26.585938 13.800781 C 26.5625 13.800781 26.539062 13.800781 26.515625 13.804688 C 25.449219 13.867188 24.648438 14.691406 24.558594 15.777344 C 24.519531 16.253906 24.664062 16.695312 24.921875 17.054688 C 25.089844 17.289062 25.308594 17.484375 25.558594 17.636719 C 25.917969 17.851562 26.339844 17.964844 26.765625 17.925781 C 27.847656 17.835938 28.644531 16.863281 28.613281 15.777344 Z M 26.742188 17.066406 C 25.984375 17.21875 25.386719 16.484375 25.40625 15.777344 C 25.425781 15.144531 26 14.683594 26.585938 14.667969 C 27.199219 14.683594 27.710938 15.144531 27.765625 15.777344 C 27.816406 16.433594 27.347656 16.941406 26.742188 17.066406 Z M 26.742188 17.066406 " fill-opacity="1" fill-rule="nonzero"/></g><path fill="#5271ff" d="M 24.988281 11.824219 C 23.539062 13.128906 21.957031 14.5625 20.507812 15.863281 C 20.507812 15.867188 20.507812 15.867188 20.511719 15.867188 C 20.523438 15.890625 20.539062 15.910156 20.550781 15.9375 C 20.566406 15.960938 20.578125 15.988281 20.585938 16.011719 C 20.691406 16.253906 20.757812 16.515625 20.773438 16.777344 C 22.347656 15.367188 24.050781 13.820312 25.625 12.40625 C 25.375 12.257812 25.160156 12.058594 24.988281 11.824219 Z M 24.988281 11.824219 " fill-opacity="1" fill-rule="nonzero"/><path fill="#5271ff" d="M 13.140625 11.832031 C 13.117188 12.15625 13.019531 12.464844 12.863281 12.738281 C 14.179688 13.917969 15.632812 15.238281 16.949219 16.421875 C 17.015625 16.128906 17.144531 15.847656 17.332031 15.613281 C 15.980469 14.398438 14.492188 13.046875 13.140625 11.832031 Z M 13.140625 11.832031 " fill-opacity="1" fill-rule="nonzero"/><g clip-path="url(#68827bb84c)"><path fill="#5271ff" d="M 4.375 16.488281 C 4.042969 16.234375 3.628906 16.074219 3.15625 16.050781 C 2.011719 15.984375 1.183594 17.042969 1.125 18.117188 C 1.066406 19.285156 2.101562 20.128906 3.15625 20.183594 C 4.257812 20.246094 5.0625 19.273438 5.175781 18.246094 C 5.1875 18.207031 5.191406 18.164062 5.1875 18.117188 C 5.191406 18.070312 5.1875 18.027344 5.175781 17.992188 C 5.144531 17.679688 5.058594 17.394531 4.925781 17.144531 C 6.46875 15.761719 8.078125 14.308594 9.621094 12.921875 C 9.441406 12.683594 9.3125 12.40625 9.253906 12.101562 C 7.648438 13.539062 5.980469 15.046875 4.375 16.488281 Z M 1.976562 18.117188 C 1.894531 16.566406 4.257812 16.574219 4.339844 18.117188 C 4.257812 19.667969 2.058594 19.667969 1.976562 18.117188 Z M 1.976562 18.117188 " fill-opacity="1" fill-rule="nonzero"/></g><path fill="#5271ff" d="M 13.195312 11.511719 C 13.195312 11.496094 13.191406 11.480469 13.1875 11.464844 C 13.1875 11.441406 13.1875 11.417969 13.179688 11.394531 C 12.988281 10.355469 12.042969 9.621094 11.007812 9.710938 C 9.953125 9.800781 9.183594 10.714844 9.15625 11.769531 C 9.152344 11.90625 9.164062 12.039062 9.1875 12.167969 C 9.246094 12.472656 9.375 12.753906 9.554688 12.992188 C 9.953125 13.519531 10.605469 13.855469 11.285156 13.832031 C 11.992188 13.8125 12.59375 13.390625 12.929688 12.804688 C 13.085938 12.53125 13.183594 12.222656 13.207031 11.902344 C 13.214844 11.773438 13.214844 11.640625 13.195312 11.511719 Z M 11.285156 12.96875 C 10.582031 13.03125 10.039062 12.457031 10.007812 11.769531 C 9.976562 11.152344 10.476562 10.683594 11.03125 10.574219 C 11.679688 10.441406 12.21875 10.984375 12.351562 11.578125 C 12.40625 12.265625 12 12.902344 11.285156 12.96875 Z M 11.285156 12.96875 " fill-opacity="1" fill-rule="nonzero"/><path fill="#5271ff" d="M 20.617188 15.867188 C 20.605469 15.84375 20.59375 15.820312 20.578125 15.800781 C 20.578125 15.800781 20.574219 15.796875 20.574219 15.796875 C 19.984375 14.847656 18.8125 14.542969 17.832031 15.070312 C 17.605469 15.191406 17.417969 15.355469 17.265625 15.546875 C 17.078125 15.78125 16.949219 16.058594 16.882812 16.351562 C 16.761719 16.878906 16.828125 17.453125 17.101562 17.933594 C 17.636719 18.886719 18.816406 19.144531 19.753906 18.710938 C 20.535156 18.351562 20.898438 17.519531 20.839844 16.710938 C 20.824219 16.445312 20.761719 16.183594 20.652344 15.941406 C 20.644531 15.917969 20.632812 15.894531 20.617188 15.867188 Z M 19.402344 17.921875 C 18.898438 18.226562 18.214844 18.042969 17.882812 17.570312 C 17.492188 17.023438 17.640625 16.253906 18.175781 15.871094 C 18.765625 15.449219 19.539062 15.703125 19.882812 16.304688 C 20.179688 16.90625 19.960938 17.585938 19.402344 17.921875 Z M 19.402344 17.921875 " fill-opacity="1" fill-rule="nonzero"/><g clip-path="url(#b453073a3a)"><path fill="#5271ff" d="M 28.613281 10.617188 C 28.585938 9.53125 27.683594 8.710938 26.65625 8.644531 C 26.632812 8.644531 26.609375 8.640625 26.585938 8.644531 C 26.5625 8.640625 26.539062 8.644531 26.515625 8.644531 C 25.449219 8.710938 24.648438 9.53125 24.558594 10.617188 C 24.519531 11.09375 24.664062 11.535156 24.921875 11.894531 C 25.089844 12.128906 25.308594 12.328125 25.558594 12.476562 C 25.917969 12.691406 26.339844 12.804688 26.765625 12.769531 C 27.847656 12.675781 28.644531 11.707031 28.613281 10.617188 Z M 26.742188 11.90625 C 25.984375 12.058594 25.386719 11.324219 25.40625 10.617188 C 25.425781 9.984375 26 9.523438 26.585938 9.507812 C 27.199219 9.527344 27.710938 9.984375 27.765625 10.617188 C 27.816406 11.273438 27.347656 11.785156 26.742188 11.90625 Z M 26.742188 11.90625 " fill-opacity="1" fill-rule="nonzero"/></g><path fill="#38b6ff" d="M 24.988281 6.816406 C 23.539062 8.121094 21.957031 9.554688 20.507812 10.855469 C 20.507812 10.859375 20.507812 10.859375 20.511719 10.859375 C 20.523438 10.882812 20.539062 10.902344 20.550781 10.929688 C 20.566406 10.953125 20.578125 10.980469 20.585938 11.003906 C 20.691406 11.246094 20.757812 11.507812 20.773438 11.769531 C 22.347656 10.359375 24.050781 8.8125 25.625 7.398438 C 25.375 7.25 25.160156 7.050781 24.988281 6.816406 Z M 24.988281 6.816406 " fill-opacity="1" fill-rule="nonzero"/><path fill="#38b6ff" d="M 13.140625 6.824219 C 13.117188 7.148438 13.019531 7.457031 12.863281 7.730469 C 14.179688 8.910156 15.632812 10.230469 16.949219 11.414062 C 17.015625 11.121094 17.144531 10.839844 17.332031 10.605469 C 15.980469 9.390625 14.492188 8.039062 13.140625 6.824219 Z M 13.140625 6.824219 " fill-opacity="1" fill-rule="nonzero"/><g clip-path="url(#500163ad2f)"><path fill="#38b6ff" d="M 4.375 11.480469 C 4.042969 11.226562 3.628906 11.066406 3.15625 11.042969 C 2.011719 10.976562 1.183594 12.035156 1.125 13.109375 C 1.066406 14.277344 2.101562 15.121094 3.15625 15.175781 C 4.257812 15.238281 5.0625 14.265625 5.175781 13.238281 C 5.1875 13.199219 5.191406 13.15625 5.1875 13.109375 C 5.191406 13.0625 5.1875 13.019531 5.175781 12.984375 C 5.144531 12.671875 5.058594 12.386719 4.925781 12.136719 C 6.46875 10.753906 8.078125 9.300781 9.621094 7.914062 C 9.441406 7.675781 9.3125 7.398438 9.253906 7.09375 C 7.648438 8.53125 5.980469 10.039062 4.375 11.480469 Z M 1.976562 13.109375 C 1.894531 11.558594 4.257812 11.566406 4.339844 13.109375 C 4.257812 14.660156 2.058594 14.660156 1.976562 13.109375 Z M 1.976562 13.109375 " fill-opacity="1" fill-rule="nonzero"/></g><path fill="#38b6ff" d="M 13.195312 6.503906 C 13.195312 6.488281 13.191406 6.472656 13.1875 6.457031 C 13.1875 6.433594 13.1875 6.410156 13.179688 6.386719 C 12.988281 5.347656 12.042969 4.613281 11.007812 4.703125 C 9.953125 4.792969 9.183594 5.707031 9.15625 6.761719 C 9.152344 6.898438 9.164062 7.03125 9.1875 7.160156 C 9.246094 7.464844 9.375 7.746094 9.554688 7.984375 C 9.953125 8.511719 10.605469 8.847656 11.285156 8.824219 C 11.992188 8.804688 12.59375 8.382812 12.929688 7.796875 C 13.085938 7.523438 13.183594 7.214844 13.207031 6.894531 C 13.214844 6.765625 13.214844 6.632812 13.195312 6.503906 Z M 11.285156 7.960938 C 10.582031 8.023438 10.039062 7.449219 10.007812 6.761719 C 9.976562 6.144531 10.476562 5.675781 11.03125 5.566406 C 11.679688 5.433594 12.21875 5.976562 12.351562 6.570312 C 12.40625 7.257812 12 7.894531 11.285156 7.960938 Z M 11.285156 7.960938 " fill-opacity="1" fill-rule="nonzero"/><path fill="#38b6ff" d="M 20.617188 10.859375 C 20.605469 10.835938 20.59375 10.8125 20.578125 10.792969 C 20.578125 10.792969 20.574219 10.789062 20.574219 10.789062 C 19.984375 9.839844 18.8125 9.535156 17.832031 10.0625 C 17.605469 10.183594 17.417969 10.347656 17.265625 10.539062 C 17.078125 10.773438 16.949219 11.050781 16.882812 11.34375 C 16.761719 11.871094 16.828125 12.445312 17.101562 12.925781 C 17.636719 13.878906 18.816406 14.136719 19.753906 13.703125 C 20.535156 13.34375 20.898438 12.511719 20.839844 11.703125 C 20.824219 11.4375 20.761719 11.175781 20.652344 10.933594 C 20.644531 10.910156 20.632812 10.886719 20.617188 10.859375 Z M 19.402344 12.914062 C 18.898438 13.21875 18.214844 13.035156 17.882812 12.5625 C 17.492188 12.015625 17.640625 11.246094 18.175781 10.863281 C 18.765625 10.441406 19.539062 10.695312 19.882812 11.296875 C 20.179688 11.898438 19.960938 12.578125 19.402344 12.914062 Z M 19.402344 12.914062 " fill-opacity="1" fill-rule="nonzero"/><g clip-path="url(#63404e6834)"><path fill="#38b6ff" d="M 28.613281 5.609375 C 28.585938 4.523438 27.683594 3.703125 26.65625 3.636719 C 26.632812 3.636719 26.609375 3.632812 26.585938 3.636719 C 26.5625 3.632812 26.539062 3.636719 26.515625 3.636719 C 25.449219 3.703125 24.648438 4.523438 24.558594 5.609375 C 24.519531 6.085938 24.664062 6.527344 24.921875 6.886719 C 25.089844 7.121094 25.308594 7.320312 25.558594 7.46875 C 25.917969 7.683594 26.339844 7.796875 26.765625 7.761719 C 27.847656 7.667969 28.644531 6.699219 28.613281 5.609375 Z M 26.742188 6.898438 C 25.984375 7.050781 25.386719 6.316406 25.40625 5.609375 C 25.425781 4.976562 26 4.515625 26.585938 4.5 C 27.199219 4.519531 27.710938 4.976562 27.765625 5.609375 C 27.816406 6.265625 27.347656 6.777344 26.742188 6.898438 Z M 26.742188 6.898438 " fill-opacity="1" fill-rule="nonzero"/></g></svg>